<svg width="512" height="512" viewBox="0 0 512 512" fill="none" xmlns="http://www.w3.org/2000/svg">
<path d="M0 64C0 28.6538 28.6538 0 64 0H448C483.346 0 512 28.6538 512 64V448C512 483.346 483.346 512 448 512H64C28.6538 512 0 483.346 0 448V64Z" fill="white"/>
<path d="M178.458 276.51L191.221 277.444C209.484 277.444 224.997 271.062 237.76 258.299C250.524 245.536 256.905 229.659 256.905 210.67C256.905 185.766 245.958 167.296 224.063 155.259C212.026 148.618 199.159 144.778 185.462 143.741C179.651 143.222 174.255 142.962 169.275 142.962H158.69C156.511 142.962 154.592 143.014 152.931 143.118V352H73.55V131.756C97.8314 131.756 117.495 131.756 132.541 131.756C147.587 131.756 157.393 131.808 161.959 131.911C166.525 132.015 170.572 132.171 174.1 132.378C177.732 132.482 181.104 132.638 184.217 132.845C188.783 133.26 195.216 134.246 203.518 135.803C211.923 137.359 220.224 140.316 228.421 144.675C236.619 149.033 243.675 154.429 249.59 160.862C262.353 174.559 268.735 190.851 268.735 209.736C268.735 228.414 262.82 244.913 250.991 259.233C238.85 273.864 222.662 283.307 202.428 287.561C212.078 317.446 224.375 335.294 239.317 341.105C243.883 342.869 248.448 343.751 253.014 343.751L265.31 340.793C269.15 340.793 271.069 342.765 271.069 346.708C271.069 352.208 264.636 354.957 251.769 354.957C242.43 354.957 233.869 352.363 226.087 347.175C213.946 339.911 203.621 325.799 195.112 304.838L190.599 293.787C189.872 292.023 189.198 290.933 188.575 290.518C188.056 290.103 187.071 289.896 185.618 289.896C184.269 289.896 183.076 290 182.038 290.207L178.302 290.363C174.152 290.363 171.298 289.584 169.742 288.028C168.289 286.471 167.562 284.863 167.562 283.203C167.562 278.741 171.194 276.51 178.458 276.51Z" fill="black"/>
<path d="M443.841 338.614C449.133 338.614 451.779 340.689 451.779 344.84C451.779 346.708 450.637 348.368 448.354 349.821C446.072 351.274 442.129 352 436.525 352H304.69V131.756C345.574 131.756 386.458 131.756 427.342 131.756L440.105 131.289C447.888 131.289 451.779 133.572 451.779 138.137C451.779 139.901 451.104 141.562 449.755 143.118C448.51 144.571 447.057 145.297 445.397 145.297C442.699 145.297 439.846 144.986 436.836 144.363C432.374 143.429 426.252 142.962 418.47 142.962H384.071V190.436H412.399C412.399 190.436 418.781 190.176 431.544 189.657C433.827 189.657 435.747 190.228 437.303 191.37C438.964 192.407 439.794 193.912 439.794 195.883C439.794 200.242 436.888 202.421 431.077 202.421L424.384 202.265C420.96 201.954 418.107 201.798 415.824 201.798H384.071V340.638H418.47C426.148 340.638 431.596 340.326 434.813 339.704C438.652 338.977 441.662 338.614 443.841 338.614Z" fill="black"/>
</svg>
